<?xml version="1.0" standalone="no"?>
<!DOCTYPE svg PUBLIC "-//W3C//DTD SVG 20010904//EN"
 "http://www.w3.org/TR/2001/REC-SVG-20010904/DTD/svg10.dtd">
<svg version="1.0" xmlns="http://www.w3.org/2000/svg"
 width="460.000000pt" height="460.000000pt" viewBox="0 0 460.000000 460.000000"
 preserveAspectRatio="xMidYMid meet">

<g transform="translate(0.000000,460.000000) scale(0.100000,-0.100000)"
fill="#000000" stroke="none">
<path d="M568 4586 c-22 -9 -25 -15 -16 -30 8 -13 6 -22 -5 -33 -14 -14 -17
-13 -33 6 -10 11 -22 21 -26 21 -11 0 22 -63 37 -72 8 -5 12 -23 9 -48 -4 -45
14 -62 41 -40 13 10 12 15 -8 30 -20 17 -21 19 -4 25 17 7 17 8 -2 22 -23 15
-18 39 9 48 11 3 17 12 14 19 -3 7 2 16 10 19 16 7 22 33 9 40 -5 2 -20 -1
-35 -7z"/>
<path d="M973 4583 c-3 -39 -7 -62 -13 -61 -24 2 -47 -17 -47 -37 0 -24 0 -24
38 8 23 19 39 41 39 54 0 12 7 29 16 37 14 15 13 16 -8 16 -15 0 -24 -6 -25
-17z"/>
<path d="M2407 4593 c-21 -38 -15 -93 10 -93 28 0 3 -17 -26 -18 -22 0 -32 5
-38 21 -4 12 -6 27 -5 33 3 13 -26 39 -34 31 -3 -3 0 -15 6 -27 6 -12 9 -24 7
-27 -9 -8 -46 21 -51 40 -8 31 -31 13 -34 -26 -3 -29 -9 -40 -32 -52 -16 -8
-35 -15 -43 -15 -14 0 -29 43 -31 87 -1 13 -4 23 -8 23 -5 0 -12 0 -18 0 -5 0
-10 -15 -10 -33 0 -22 -8 -41 -23 -55 -30 -28 -42 -28 -68 2 -12 14 -28 22
-35 19 -8 -3 -14 1 -14 11 0 9 -3 16 -7 16 -10 0 -10 -76 0 -86 4 -4 7 2 7 14
0 33 32 27 53 -9 17 -30 17 -32 0 -46 -46 -36 -62 -43 -102 -45 -47 -2 -59
-15 -53 -57 4 -28 5 -28 44 -18 32 8 42 7 49 -4 16 -26 10 -39 -21 -39 -17 0
-30 5 -30 13 0 8 -3 9 -8 1 -4 -6 -29 -14 -57 -18 -43 -5 -52 -4 -66 15 -15
20 -20 20 -70 10 -30 -6 -76 -13 -102 -16 -41 -6 -47 -9 -42 -25 5 -15 0 -21
-22 -26 -15 -3 -34 -13 -40 -22 -15 -18 -154 -30 -371 -33 -139 -1 -162 -8
-162 -49 0 -22 -24 -32 -69 -28 -27 2 -31 6 -31 30 0 15 -5 30 -11 33 -5 4
-166 6 -357 6 -282 -1 -358 1 -405 14 -91 24 -87 28 -87 -80 l0 -95 83 1 c45
1 93 5 107 9 l25 8 -27 1 c-57 2 -26 19 45 25 105 9 627 12 627 4 0 -4 -8 -14
-17 -23 -16 -16 -16 -18 0 -27 19 -10 14 -28 -9 -28 -8 0 -14 10 -14 26 0 19
-5 25 -17 22 -11 -2 -18 -13 -18 -28 0 -21 -5 -26 -33 -28 -18 -2 -30 -7 -28
-11 3 -4 -18 -4 -47 0 -29 4 -65 7 -82 7 l-30 0 33 -8 c44 -10 52 -20 16 -21
-25 0 -26 -2 -9 -9 18 -8 18 -9 -5 -9 -14 -1 -43 -8 -66 -16 -32 -11 -50 -11
-85 -3 -55 14 -55 14 -35 34 9 9 16 18 14 19 -2 2 -99 5 -216 8 l-212 5 0
-199 c0 -110 3 -199 8 -199 4 0 35 5 69 10 97 16 199 -14 140 -41 -37 -17 -22
-32 24 -25 36 6 39 4 39 -16 1 -22 1 -23 15 -4 15 19 15 19 15 -5 0 -33 -42
-50 -125 -51 -64 -1 -65 -2 -65 -30 0 -35 -11 -36 -27 -3 -8 18 -8 25 0 25 6
0 1 7 -11 16 -29 20 -57 3 -42 -26 13 -25 13 -70 0 -70 -6 0 -17 15 -25 33
-13 29 -14 18 -15 -130 l0 -163 28 0 c42 0 72 -11 72 -25 0 -16 -65 -39 -85
-31 -13 5 -15 -42 -15 -342 l0 -347 160 3 c112 3 160 1 160 -7 0 -6 -15 -12
-32 -13 -51 -2 -126 -5 -210 -6 l-78 -2 0 -35 0 -35 63 0 c34 0 408 7 832 15
424 8 820 15 880 16 149 2 168 -5 204 -75 l24 -47 -20 -21 c-20 -20 -33 -20
-559 -24 -297 -3 -575 -6 -619 -8 l-80 -3 3 -49 c2 -27 5 -49 5 -50 1 -1 17
-4 35 -7 29 -6 32 -4 32 18 0 32 10 36 78 38 67 1 86 -7 78 -37 -5 -20 -2 -21
54 -18 33 2 59 7 59 10 -5 32 4 41 46 48 68 10 115 -2 115 -29 0 -20 5 -22 55
-22 50 0 55 2 55 22 0 16 8 24 28 29 15 4 33 11 40 17 10 8 16 7 23 -4 7 -12
9 -12 9 1 0 10 3 11 8 4 4 -7 16 -13 27 -15 12 -3 21 -14 23 -27 3 -19 9 -22
53 -22 42 0 49 3 49 20 0 27 30 40 93 40 76 0 93 -21 34 -44 -23 -9 -47 -16
-53 -16 -5 0 -28 -13 -50 -29 -45 -33 -155 -55 -147 -30 1 4 -22 7 -53 7 -43
0 -56 -3 -64 -18 -17 -32 -12 -42 13 -28 27 15 57 20 57 10 0 -12 -149 -55
-172 -49 -13 4 -27 -1 -37 -12 -9 -10 -45 -29 -80 -41 l-64 -24 25 -20 c14
-12 36 -42 48 -68 13 -27 27 -48 32 -48 4 0 8 -6 8 -13 0 -8 17 -40 38 -73 21
-32 41 -67 45 -78 6 -16 14 -18 60 -12 200 23 303 15 339 -26 22 -26 24 -91 3
-112 -21 -21 -20 -23 28 -30 23 -4 52 -14 65 -22 19 -13 22 -13 22 1 0 8 11
17 24 21 34 8 257 -13 326 -31 48 -12 171 -15 293 -6 4 1 7 9 8 19 0 9 3 12 5
5 9 -21 31 -3 27 22 -5 22 -2 23 43 22 l48 -2 2 34 c1 26 0 31 -8 18 -11 -21
-58 -23 -58 -3 0 23 41 87 54 84 6 -2 32 -10 59 -17 48 -14 59 -27 32 -37 -14
-6 -22 -34 -9 -34 4 0 23 10 43 22 26 16 32 17 23 6 -8 -10 -10 -23 -6 -29 5
-8 3 -9 -6 -4 -10 6 -12 4 -7 -8 3 -10 2 -17 -3 -17 -19 0 -10 -28 10 -33 27
-7 25 -17 -9 -64 -29 -41 -88 -75 -176 -103 -55 -18 -150 -16 -180 4 -13 9
-35 16 -47 16 -13 0 -32 7 -42 15 -11 8 -27 15 -35 15 -9 0 -28 6 -43 14 -33
17 -241 51 -263 42 -8 -3 -15 -14 -15 -25 0 -11 -6 -21 -12 -24 -8 -2 -12 -21
-11 -50 1 -41 -1 -47 -19 -47 -12 0 -35 -11 -52 -24 -17 -13 -47 -27 -66 -31
-45 -10 -120 -46 -120 -58 0 -5 12 -6 28 -2 15 4 50 9 77 12 38 3 55 10 71 30
20 23 26 25 67 19 25 -4 57 -16 71 -27 28 -22 35 -66 12 -75 -11 -4 -12 -13
-5 -37 7 -24 4 -41 -15 -81 -13 -28 -35 -64 -50 -81 -14 -16 -45 -54 -68 -84
-23 -29 -62 -75 -87 -101 -140 -145 -156 -170 -147 -233 9 -56 -8 -106 -52
-153 -66 -69 -104 -93 -176 -108 -38 -8 -76 -21 -84 -30 -15 -15 103 -16 1408
-14 784 0 1409 3 1390 5 -41 5 -50 16 -50 61 0 35 -33 289 -50 382 -5 30 -12
84 -16 120 -6 64 -14 93 -14 52 0 -12 -4 -22 -9 -22 -5 0 -11 -6 -14 -12 -2
-7 -2 -4 1 7 9 31 8 199 0 206 -12 9 -12 46 2 183 25 252 -5 568 -65 670 -30
51 -132 151 -172 169 -52 23 -85 49 -72 58 7 4 21 3 31 -2 10 -6 23 -7 28 -4
5 3 12 0 16 -6 5 -8 9 -8 14 1 10 16 127 29 140 16 7 -7 10 0 10 22 0 20 6 35
18 40 20 11 194 16 222 7 30 -9 43 -40 29 -67 -7 -13 -12 -80 -13 -176 -2
-139 0 -154 16 -163 12 -6 25 -6 37 0 16 9 18 16 10 48 -5 21 -9 80 -9 131 l0
92 53 1 c28 1 70 2 92 4 48 3 75 -9 75 -35 0 -23 18 -30 50 -18 14 6 64 10
113 10 l87 0 0 113 c0 98 -2 114 -17 120 -17 6 -17 7 0 16 10 6 17 22 17 39 0
23 -3 27 -20 23 -25 -7 -70 4 -70 17 0 6 12 16 26 22 20 9 30 9 45 0 18 -12
19 -9 19 66 l0 78 -36 1 c-20 1 -43 7 -50 15 -12 12 -11 17 6 36 11 11 20 25
20 31 0 18 33 21 46 4 12 -16 13 -9 14 53 l0 71 -48 -5 c-44 -4 -51 -1 -78 26
-80 84 -86 103 -36 120 42 14 131 15 148 2 12 -11 14 -1 14 69 0 46 -4 80 -9
77 -5 -3 -109 -8 -230 -10 -122 -2 -225 -6 -228 -10 -4 -3 -14 -6 -24 -6 -20
0 -35 -18 -24 -28 4 -4 69 -9 146 -12 110 -5 142 -9 155 -22 16 -15 15 -18
-12 -41 -16 -14 -41 -28 -57 -31 -19 -4 -36 -19 -55 -51 -15 -24 -36 -47 -47
-51 -21 -7 -75 -61 -75 -74 0 -4 -12 -16 -27 -25 -23 -15 -24 -19 -10 -27 9
-5 50 -10 91 -12 42 -1 82 -8 90 -15 9 -7 23 -11 31 -7 39 15 61 -36 35 -85
-12 -21 -64 -27 -76 -8 -3 6 -16 8 -28 4 -22 -7 -97 -16 -131 -15 -95 1 -116
-31 -55 -88 28 -28 38 -44 34 -56 -4 -11 -12 -15 -23 -11 -28 12 -174 26 -203
20 -23 -6 -28 -3 -34 18 -4 18 1 34 15 54 27 36 36 168 11 168 -8 0 -18 -14
-23 -32 -11 -38 -28 -47 -62 -31 -28 13 -32 26 -10 34 20 8 19 34 -1 34 -12 0
-14 10 -12 53 2 43 7 54 25 62 38 16 40 65 4 65 -29 0 -41 22 -41 78 0 87 6
92 110 92 48 0 95 3 104 6 44 17 -14 24 -198 24 -234 0 -232 1 -224 -81 8 -76
-7 -140 -39 -169 -27 -24 -34 -25 -132 -23 -89 1 -106 4 -125 22 -12 12 -34
21 -48 21 -14 0 -28 6 -31 14 -6 15 14 114 28 135 4 8 7 46 6 85 l-1 71 24
-29 c13 -15 29 -46 35 -67 20 -66 77 -77 101 -19 7 17 16 30 20 30 18 0 31 73
29 160 -1 50 1 93 4 96 3 3 14 1 24 -4 14 -8 23 -6 39 9 20 19 23 19 38 3 21
-21 17 -36 -17 -52 -35 -17 -37 -57 -4 -66 45 -12 197 -6 226 9 30 15 46 59
34 92 -8 25 -44 63 -58 63 -14 0 -73 60 -59 60 5 0 42 3 82 7 77 6 88 -1 52
-35 -20 -19 -20 -19 -1 -44 12 -15 18 -33 14 -46 -9 -35 14 -54 59 -48 52 7
58 12 58 47 0 16 4 29 10 29 13 0 19 -31 22 -110 l3 -65 92 -3 c64 -2 95 -7
103 -17 10 -13 16 -12 41 1 21 10 77 17 194 21 l165 6 6 38 c6 33 9 36 24 27
9 -6 25 -8 34 -5 14 6 16 40 16 336 0 241 -3 337 -12 357 -10 22 -10 28 0 32
9 3 12 112 12 488 l0 484 -1094 0 c-602 0 -1097 -3 -1099 -7z m1081 -103 c36
-22 37 -27 17 -54 -20 -27 -105 -34 -128 -11 -26 25 -20 43 21 64 47 25 50 25
90 1z m-958 -9 c0 -20 -25 -35 -41 -25 -13 8 9 44 26 44 8 0 15 -9 15 -19z
m111 -84 c-10 -9 -11 -8 -5 6 3 10 9 15 12 12 3 -3 0 -11 -7 -18z m199 -7
c-20 -13 -40 -13 -40 0 0 6 12 10 28 10 21 0 24 -2 12 -10z m-440 -22 c0 -16
-3 -19 -11 -11 -6 6 -8 16 -5 22 11 17 16 13 16 -11z m258 -13 c14 -31 15 -35
4 -35 -20 0 -43 27 -36 43 9 24 19 21 32 -8z m-878 -145 c0 -5 -7 -10 -15 -10
-8 0 -15 5 -15 10 0 6 7 10 15 10 8 0 15 -4 15 -10z m-468 -185 l68 -7 -16
-29 c-8 -16 -13 -33 -10 -38 3 -4 0 -22 -7 -40 -9 -26 -9 -33 2 -40 7 -5 15
-26 17 -47 5 -56 -29 -84 -103 -84 -41 0 -59 -5 -69 -17 -13 -17 -15 -17 -25
0 -8 13 -24 17 -78 17 -46 0 -70 4 -74 13 -2 6 -3 57 -1 112 2 55 4 114 4 132
l0 32 73 4 c74 3 102 2 219 -8z m-392 -24 c0 -17 4 -32 9 -35 10 -6 -8 -66
-20 -66 -10 0 -22 48 -24 93 -1 30 2 37 17 37 13 0 18 -8 18 -29z m500 19 c0
-5 -5 -10 -11 -10 -5 0 -7 5 -4 10 3 6 8 10 11 10 2 0 4 -4 4 -10z m-1282 -15
c-8 -8 -98 -9 -105 -1 -4 3 20 6 52 6 32 0 56 -2 53 -5z m700 -143 c2 -7 -3
-12 -12 -12 -9 0 -16 7 -16 16 0 17 22 14 28 -4z m-28 -40 c0 -28 -36 -70 -48
-56 -4 4 -1 9 6 11 6 3 10 9 7 14 -4 5 1 6 9 3 19 -7 22 16 5 33 -13 13 -3 36
12 28 5 -4 9 -18 9 -33z m124 -9 c4 -31 2 -49 -5 -54 -7 -4 -9 -15 -5 -24 3
-10 1 -24 -5 -31 -9 -11 -5 -16 14 -25 45 -21 44 -85 -2 -95 -54 -12 -61 -16
-61 -34 0 -10 10 -21 23 -24 20 -7 18 -8 -17 -21 -21 -8 -42 -12 -47 -9 -5 3
-9 23 -9 45 0 21 -3 39 -7 39 -23 -1 -37 -23 -38 -61 -1 -51 -16 -60 -32 -19
-7 20 -18 30 -32 30 -14 0 -23 8 -27 26 -5 21 1 33 36 69 41 42 75 55 138 55
26 0 28 6 7 26 -8 9 -15 11 -15 6 0 -14 -72 -5 -81 10 -13 20 24 52 50 43 11
-3 21 -13 21 -21 0 -19 7 -18 37 6 14 11 22 20 18 20 -4 0 -2 7 5 15 7 8 10
25 6 38 -5 23 0 37 14 37 4 0 10 -21 14 -47z m-184 -63 c0 -5 -2 -10 -4 -10
-3 0 -8 5 -11 10 -3 6 -1 10 4 10 6 0 11 -4 11 -10z m-83 -36 c-3 -3 -12 -4
-19 -1 -8 3 -5 6 6 6 11 1 17 -2 13 -5z m-157 -134 c0 -5 -2 -10 -4 -10 -3 0
-8 5 -11 10 -3 6 -1 10 4 10 6 0 11 -4 11 -10z m698 -51 c-2 -5 -12 -3 -23 5
-17 13 -18 17 -5 25 16 11 35 -10 28 -30z m-662 19 c8 -7 22 -19 30 -27 13
-12 22 -12 47 -3 39 15 47 9 47 -33 0 -28 -6 -37 -30 -50 -16 -8 -35 -15 -43
-15 -19 0 -56 42 -66 76 -5 16 -12 37 -16 47 -8 20 9 23 31 5z m-141 -38 c0
-20 -104 -32 -122 -14 -28 27 -14 35 55 32 52 -2 67 -6 67 -18z m452 -67 c5
-14 7 -47 4 -97 -1 -18 -79 -59 -98 -52 -10 4 -13 22 -11 72 3 66 3 67 38 79
49 18 60 17 67 -2z m338 -15 c0 -17 -6 -33 -12 -35 -8 -3 -13 4 -13 15 0 11
-3 27 -6 36 -4 11 0 16 12 16 15 0 19 -7 19 -32z m-855 12 c0 -5 -4 -10 -10
-10 -5 0 -10 5 -10 10 0 6 5 10 10 10 6 0 10 -4 10 -10z m720 0 c0 -5 7 -10
15 -10 18 0 20 -21 3 -38 -20 -20 -47 -14 -54 12 -3 14 -3 30 1 35 8 14 35 14
35 1z m-405 -49 c-3 -6 -11 -8 -17 -5 -6 4 -5 9 3 15 16 10 23 4 14 -10z m435
-70 c0 -5 -7 -14 -15 -21 -25 -21 -17 -38 20 -42 24 -3 35 0 35 9 0 7 5 13 10
13 6 0 10 -3 10 -7 -1 -19 -19 -34 -60 -48 -43 -15 -46 -15 -62 5 -9 11 -21
20 -27 20 -17 0 -13 9 17 45 25 31 72 48 72 26z m-202 -13 c-6 -18 -28 -21
-28 -4 0 9 7 16 16 16 9 0 14 -5 12 -12z m-168 -32 c0 -28 -26 -42 -34 -19 -7
16 10 43 25 43 5 0 9 -11 9 -24z m230 -16 c0 -5 -2 -10 -4 -10 -3 0 -8 5 -11
10 -3 6 -1 10 4 10 6 0 11 -4 11 -10z m296 -58 c6 -15 7 -34 3 -42 -14 -27
-22 -55 -20 -65 2 -5 2 -52 2 -104 -2 -74 1 -97 14 -111 9 -10 18 -26 19 -35
1 -9 9 -21 17 -26 12 -8 11 -11 -5 -20 -15 -9 -16 -13 -5 -20 8 -4 15 -13 15
-19 1 -5 2 -14 3 -19 2 -12 50 -30 91 -33 32 -3 35 -6 33 -32 -2 -33 -11 -45
-21 -29 -11 17 -109 36 -122 23 -37 -37 -47 -41 -76 -25 -51 26 -166 14 -172
-19 -3 -14 0 -17 13 -12 18 7 18 6 -2 -56 -4 -14 0 -18 20 -18 34 0 40 -12 23
-45 -14 -26 -56 -55 -81 -55 -7 0 -16 -7 -19 -16 -7 -19 12 -47 26 -38 5 3 20
-4 34 -17 19 -18 27 -20 36 -11 17 17 55 15 55 -3 0 -8 -7 -15 -16 -16 -14 0
-14 -1 -1 -6 9 -4 -3 -11 -30 -17 -46 -12 -68 -3 -49 20 6 8 4 13 -8 16 -25 7
-43 -1 -43 -18 0 -13 -25 -19 -59 -14 -33 4 -72 46 -83 88 -8 34 -15 42 -30
40 -16 -3 -20 -13 -23 -72 -4 -71 -14 -92 -38 -83 -11 4 -12 17 -4 72 8 57 7
72 -7 95 -9 16 -16 38 -16 49 0 22 -26 30 -27 9 -1 -7 -4 -34 -8 -59 -7 -42
-5 -48 14 -54 26 -8 27 -21 1 -35 -22 -12 -27 -49 -8 -68 14 -14 26 -13 -159
-16 -148 -3 -192 5 -138 24 24 8 30 16 30 36 -1 14 -6 29 -12 32 -17 11 -42
129 -25 118 12 -7 26 29 17 44 -4 6 -21 8 -39 4 -25 -4 -35 -2 -39 10 -5 12
-18 14 -66 9 -72 -6 -81 4 -56 63 9 21 13 49 10 62 -3 12 0 32 6 44 l12 22 18
-23 c11 -13 19 -32 19 -42 0 -10 3 -19 8 -19 4 0 17 -3 29 -6 18 -5 25 -1 33
22 13 33 -11 94 -37 94 -9 0 -13 6 -9 15 4 10 -1 15 -14 15 -13 0 -18 -5 -14
-15 4 -9 0 -15 -9 -15 -8 0 -18 -6 -20 -12 -3 -7 -6 8 -6 35 -1 47 6 56 26 36
18 -18 69 -1 82 27 14 32 14 34 -3 34 -7 0 -16 -9 -19 -20 -3 -11 -12 -20 -21
-20 -21 0 -38 42 -22 52 8 6 7 8 -1 8 -7 0 -13 4 -13 9 0 5 21 11 48 15 26 3
72 9 102 13 119 17 315 -1 345 -31 12 -12 10 -15 -18 -20 -18 -4 -39 -7 -47
-8 -26 -2 -29 -20 -23 -138 7 -136 14 -160 45 -160 44 0 68 12 68 32 0 13 -5
18 -14 15 -8 -3 -24 4 -35 15 -33 30 -26 86 14 108 28 16 31 16 49 1 18 -16
19 -14 13 46 -6 61 -6 63 18 69 26 6 32 18 16 28 -5 4 -17 31 -27 61 -21 68
-13 81 39 67 35 -10 35 -10 45 29 8 32 7 41 -6 48 -9 5 -13 15 -9 25 9 22 28
20 34 -3 3 -11 11 -22 19 -25 8 -3 14 -15 14 -26 0 -11 8 -32 17 -46 13 -21
14 -30 4 -45 -14 -24 -5 -43 17 -34 8 3 19 0 24 -7 6 -10 8 -8 8 5 0 10 8 17
19 17 11 0 23 9 26 20 5 15 15 20 42 20 22 0 33 4 31 12 -4 12 -29 20 -63 19
-17 0 -15 5 14 29 18 17 37 30 41 30 4 0 10 8 14 18 3 9 9 24 12 32 4 8 -6 3
-21 -12 -34 -34 -49 -35 -69 -6 -15 21 -15 23 6 31 13 5 41 9 64 8 31 -1 46 5
64 24 30 31 33 31 46 -3z m2962 16 c18 -18 14 -28 -12 -28 -13 0 -26 6 -29 14
-10 26 19 36 41 14z m-3318 -8 c0 -5 -5 -10 -11 -10 -5 0 -7 5 -4 10 3 6 8 10
11 10 2 0 4 -4 4 -10z m2980 -30 c0 -5 -7 -10 -15 -10 -8 0 -15 5 -15 10 0 6
7 10 15 10 8 0 15 -4 15 -10z m36 -85 c-3 -20 -20 -20 -24 -1 -2 9 3 16 11 16
9 0 14 -7 13 -15z m-3427 -28 c6 -8 8 -17 4 -20 -10 -11 -113 -8 -113 3 0 6 5
10 11 10 5 0 7 5 4 10 -10 15 81 12 94 -3z m-356 -453 c27 -5 37 -12 37 -25 0
-14 -11 -19 -46 -25 -51 -7 -69 3 -59 35 7 23 12 24 68 15z m1427 -129 c0 -8
-6 -15 -14 -15 -17 0 -28 14 -19 24 12 12 33 6 33 -9z m2810 -66 c0 -20 -15
-26 -24 -10 -8 13 4 42 15 35 5 -3 9 -14 9 -25z m-2810 -28 c0 -14 -28 -33
-40 -26 -20 12 -10 35 15 35 14 0 25 -4 25 -9z m314 -69 c4 -29 3 -41 -4 -37
-5 3 -10 25 -10 47 0 51 5 47 14 -10z m1374 -64 c9 -8 12 -39 10 -112 l-3
-101 -36 -3 c-35 -3 -37 -1 -78 70 -44 76 -46 97 -14 147 13 21 20 22 61 16
26 -4 53 -12 60 -17z m-573 -64 c0 -10 -7 -19 -15 -19 -8 0 -20 -4 -26 -7 -6
-4 -18 2 -27 12 -16 19 -15 20 16 29 41 12 52 9 52 -15z m1726 -17 c39 -11 44
-16 44 -42 0 -29 -1 -30 -45 -28 -85 3 -160 15 -171 29 -20 25 -1 49 53 65 45
13 55 13 64 2 7 -7 31 -19 55 -26z m-478 -86 c4 -18 76 -41 128 -41 15 0 20
-6 17 -22 -2 -19 -11 -24 -53 -29 -27 -4 -71 -4 -97 -1 l-48 5 0 43 c0 32 4
44 15 44 8 0 15 5 15 10 0 18 17 11 23 -9z m-2336 -37 c-3 -3 -12 -4 -19 -1
-8 3 -5 6 6 6 11 1 17 -2 13 -5z m268 -5 c11 -16 1 -19 -13 -3 -7 8 -8 14 -3
14 5 0 13 -5 16 -11z m655 -163 c0 -11 -19 -15 -25 -6 -3 5 1 10 9 10 9 0 16
-2 16 -4z m304 -11 c-4 -8 -10 -15 -15 -15 -5 0 -9 7 -9 15 0 8 7 15 15 15 9
0 12 -6 9 -15z m-224 -24 c0 -5 3 -16 6 -25 3 -9 2 -16 -4 -16 -5 0 -12 9 -15
21 -5 18 -11 20 -36 14 -20 -4 -31 -3 -31 4 0 6 18 11 40 11 22 0 40 -4 40 -9z
m40 -31 c0 -5 -5 -10 -11 -10 -5 0 -7 5 -4 10 3 6 8 10 11 10 2 0 4 -4 4 -10z
m465 -130 c9 -39 27 -82 38 -96 21 -28 39 -118 30 -154 -3 -11 -13 -21 -22
-21 -14 -1 -13 -2 2 -6 11 -3 17 -14 17 -34 0 -26 -3 -29 -31 -29 l-30 0 7 58
c3 31 11 63 17 71 9 10 7 16 -6 26 -11 8 -17 24 -16 41 3 34 -10 94 -22 109
-4 6 -11 35 -15 64 -10 77 10 58 31 -29z m-764 -34 c10 -13 30 -27 45 -30 31
-8 29 -40 -3 -42 -13 -1 -20 2 -18 6 7 11 -5 40 -17 40 -13 0 -38 26 -38 39 0
17 11 13 31 -13z m143 -81 c8 -9 17 -15 18 -14 2 1 20 -3 40 -10 38 -12 38
-13 20 -36 -21 -30 -37 -31 -90 -5 -47 23 -46 20 -30 55 13 29 21 31 42 10z
m466 -35 c-24 -15 -37 -11 -16 5 11 8 22 12 25 9 3 -3 -1 -9 -9 -14z m-295
-29 c3 -5 19 -12 36 -16 24 -5 29 -11 27 -28 -3 -24 -24 -26 -91 -9 -49 13
-51 16 -37 41 11 21 54 29 65 12z m-325 -21 c0 -5 -2 -10 -4 -10 -3 0 -8 5
-11 10 -3 6 -1 10 4 10 6 0 11 -4 11 -10z m105 -4 c17 -12 17 -16 6 -30 -21
-25 -6 -31 18 -7 25 25 34 26 50 7 13 -15 -1 -50 -32 -80 -14 -15 -20 -16 -33
-5 -8 7 -13 18 -10 26 3 7 -1 13 -10 13 -8 0 -12 -4 -9 -10 8 -13 2 -13 -30 2
-24 11 -34 28 -17 28 5 0 14 16 22 35 15 39 18 41 45 21z m502 -11 c-7 -14
-16 -25 -20 -25 -14 0 -3 35 13 42 8 4 16 7 17 7 0 1 -4 -10 -10 -24z m-560
-118 c7 -5 10 -13 7 -18 -8 -13 -44 9 -44 27 0 15 10 13 37 -9z m67 -25 c8
-13 -5 -52 -15 -46 -5 3 -7 10 -4 15 4 5 0 9 -8 9 -7 0 -14 7 -14 15 0 16 32
21 41 7z m724 -83 c2 -38 10 -89 18 -111 8 -22 17 -84 20 -138 6 -84 5 -98
-10 -103 -13 -5 -16 0 -16 23 0 17 5 30 10 30 6 0 10 11 10 25 0 14 -5 25 -11
25 -8 0 -8 4 0 14 15 18 -10 29 -45 20 -13 -3 -25 -2 -25 2 -10 72 -6 120 9
132 15 12 16 14 1 25 -16 12 -31 89 -22 113 3 8 17 14 32 14 25 0 26 -2 29
-71z m-12 -262 c-1 -13 -6 -29 -10 -36 -5 -8 -4 -16 4 -21 18 -11 7 -45 -16
-48 -17 -2 -21 2 -21 22 0 15 4 26 9 26 6 0 5 6 -2 15 -15 18 -4 52 18 58 9 3
18 5 19 6 1 0 1 -9 -1 -22z m54 -177 c0 -47 -3 -60 -15 -60 -10 0 -15 10 -15
31 0 17 -4 28 -10 24 -5 -3 -7 -12 -3 -20 8 -23 -6 -65 -22 -65 -18 0 -16 -7
-21 63 -4 57 -4 57 26 63 16 4 30 10 30 15 0 5 7 9 15 9 12 0 15 -13 15 -60z
m0 -152 c0 -34 -3 -58 -7 -54 -5 4 -8 19 -8 33 0 15 -6 28 -14 31 -10 3 -12
-5 -6 -38 8 -45 -2 -60 -39 -60 -15 0 -17 5 -13 30 4 16 2 32 -3 35 -24 15 12
59 41 52 12 -3 19 0 19 8 0 11 8 18 28 24 1 1 2 -27 2 -61z m715 -147 c-6 -31
-9 -33 -15 -16 -12 28 -12 43 0 25 7 -11 10 -3 11 30 1 26 4 35 6 21 3 -13 2
-40 -2 -60z m-711 20 c-4 -16 -1 -32 5 -35 16 -10 13 -26 -4 -26 -10 0 -15 10
-15 29 0 16 -3 36 -6 45 -4 10 -1 16 10 16 12 0 14 -7 10 -29z m-54 -66 c-27
-14 -36 -13 -25 4 3 6 16 11 28 11 21 -1 21 -1 -3 -15z m767 -14 c-3 -12 1
-22 9 -25 15 -6 20 -56 5 -56 -13 0 -30 56 -24 79 3 12 8 21 10 21 3 0 3 -9 0
-19z m41 -186 c-3 -3 -9 2 -12 12 -6 14 -5 15 5 6 7 -7 10 -15 7 -18z m-18
-110 c0 -8 -2 -15 -4 -15 -2 0 -6 7 -10 15 -3 8 -1 15 4 15 6 0 10 -7 10 -15z"/>
<path d="M1240 3900 c0 -5 7 -10 16 -10 8 0 12 5 9 10 -3 6 -10 10 -16 10 -5
0 -9 -4 -9 -10z"/>
<path d="M1007 2916 c-4 -10 -5 -21 -2 -24 9 -9 17 6 13 25 -3 17 -4 17 -11
-1z"/>
<path d="M588 2874 c-3 -2 -46 -5 -97 -5 -98 0 -96 1 -85 -57 5 -27 9 -30 28
-22 34 12 56 -6 56 -45 0 -35 0 -35 -45 -35 -58 0 -59 -20 -4 -49 35 -17 61
-11 75 17 8 16 14 20 19 12 5 -8 10 -9 18 -1 6 6 19 11 28 11 23 0 29 20 29
100 0 62 -8 89 -22 74z"/>
<path d="M1036 2853 c-3 -10 -6 -49 -7 -88 -2 -55 1 -70 12 -70 14 0 16 32 9
133 -4 46 -6 51 -14 25z"/>
<path d="M1206 2831 c-3 -5 -8 -34 -10 -65 -3 -47 -1 -58 14 -66 27 -14 27
-15 34 39 8 63 -18 126 -38 92z"/>
<path d="M964 2672 c-15 -9 -12 -118 3 -133 7 -7 9 -18 6 -25 -8 -20 6 -66 17
-59 12 7 11 135 0 150 -5 6 -10 25 -12 42 -2 21 -7 30 -14 25z"/>
<path d="M857 2664 c-3 -3 -3 -12 0 -20 4 -11 9 -12 19 -3 8 6 14 15 14 20 0
10 -24 12 -33 3z"/>
<path d="M465 2589 c-10 -14 -1 -21 19 -13 9 3 13 10 10 15 -7 12 -21 11 -29
-2z"/>
<path d="M555 2381 c-25 -5 -31 -11 -33 -39 -3 -32 -3 -32 42 -32 46 0 46 0
46 34 0 38 -11 45 -55 37z"/>
<path d="M1058 2333 c6 -2 18 -2 25 0 6 3 1 5 -13 5 -14 0 -19 -2 -12 -5z"/>
<path d="M2630 1480 c-9 -6 -10 -10 -3 -10 6 0 15 5 18 10 8 12 4 12 -15 0z"/>
<path d="M740 4565 c0 -8 6 -15 14 -15 22 0 28 17 10 24 -22 9 -24 8 -24 -9z"/>
<path d="M378 4492 c-51 -37 -41 -60 16 -37 16 7 18 5 11 -26 -9 -43 4 -32 15
13 5 18 12 43 15 56 10 30 -10 28 -57 -6z"/>
<path d="M650 4460 c0 -5 4 -10 10 -10 5 0 7 -8 3 -17 -5 -14 -3 -16 7 -6 7 6
10 19 7 27 -7 18 -27 22 -27 6z"/>
<path d="M444 4404 c3 -9 6 -18 6 -20 0 -2 5 -4 10 -4 6 0 10 9 10 20 0 12 -7
20 -16 20 -11 0 -14 -5 -10 -16z"/>
<path d="M377 4393 c-4 -3 -7 -11 -7 -17 0 -6 5 -5 12 2 6 6 9 14 7 17 -3 3
-9 2 -12 -2z"/>
<path d="M8 4193 c7 -3 16 -2 19 1 4 3 -2 6 -13 5 -11 0 -14 -3 -6 -6z"/>
<path d="M3860 2900 c0 -5 5 -10 10 -10 6 0 10 5 10 10 0 6 -4 10 -10 10 -5 0
-10 -4 -10 -10z"/>
<path d="M3775 2834 c-16 -25 -16 -27 2 -46 18 -17 24 -18 67 -7 78 19 72 60
-10 73 -37 5 -44 3 -59 -20z"/>
<path d="M4563 2843 c-13 -2 -23 -7 -23 -9 0 -9 24 -30 43 -37 14 -5 17 -1 17
23 0 17 -3 29 -7 29 -5 -1 -18 -4 -30 -6z"/>
<path d="M559 2065 c-3 -2 -130 -5 -282 -6 -275 -2 -278 -2 -275 -23 2 -13 14
-24 36 -30 31 -8 33 -12 28 -38 -5 -27 -4 -29 17 -22 12 4 40 7 63 6 38 0 41
2 36 23 -5 29 19 38 99 33 50 -3 54 -5 54 -28 0 -25 2 -26 60 -25 57 0 61 2
57 21 -5 25 19 34 96 34 49 0 52 -1 52 -25 0 -57 -62 -101 -108 -76 -17 9 -20
7 -26 -17 -11 -51 -36 -67 -98 -63 -20 1 -48 49 -48 81 0 20 -1 20 -16 6 -18
-18 -75 -21 -91 -5 -7 7 -12 1 -16 -20 -19 -91 -123 -91 -143 0 -5 24 -8 25
-30 15 -31 -14 -31 -34 1 -42 37 -9 45 -31 27 -75 -10 -26 -21 -39 -34 -39
-17 0 -18 -12 -18 -189 0 -106 4 -192 9 -196 5 -3 7 -30 4 -60 -7 -63 -1 -73
63 -109 70 -39 153 -56 277 -56 105 0 178 13 225 39 15 8 14 11 -11 20 -16 6
-34 11 -40 11 -20 1 -47 26 -47 43 0 22 39 31 74 18 15 -6 40 -11 56 -11 40 0
110 -29 110 -45 0 -8 12 -15 28 -17 45 -5 39 -36 -20 -102 -120 -132 -138
-149 -163 -151 -32 -4 -42 29 -22 76 14 34 78 104 113 125 24 14 9 34 -26 34
-22 0 -33 -8 -50 -35 -11 -19 -33 -44 -48 -57 -47 -39 -62 -67 -51 -95 8 -20
4 -31 -19 -61 -16 -21 -35 -52 -43 -70 -21 -48 -29 -50 -256 -51 l-163 -1 0
-405 0 -405 489 0 c478 0 490 0 496 20 3 10 33 34 65 52 32 17 57 36 54 40 -3
4 5 8 18 7 13 0 17 -3 10 -6 -24 -9 0 -23 41 -23 l42 0 -44 25 c-23 14 -51 25
-61 25 -28 0 -34 19 -14 41 13 14 15 22 6 31 -15 15 -42 2 -42 -21 0 -10 -7
-22 -16 -25 -11 -4 -15 -2 -11 7 3 8 -9 21 -31 32 -21 11 -44 24 -52 31 -8 6
-32 17 -53 24 -51 16 -61 54 -23 87 26 22 33 23 104 17 43 -4 84 -13 93 -20
27 -24 43 -15 78 41 l35 55 87 0 c54 0 100 6 122 15 20 8 54 15 76 15 48 0 79
25 114 90 58 108 66 124 62 131 -3 4 -54 -21 -114 -55 -267 -150 -329 -179
-368 -174 -22 3 -21 5 17 44 21 23 42 54 46 70 8 36 52 115 73 132 9 7 30 18
46 26 36 16 95 73 95 91 0 8 3 21 6 30 6 13 -2 12 -42 -8 -27 -14 -76 -35
-109 -47 -33 -12 -73 -27 -90 -35 -78 -35 -165 -55 -165 -37 0 11 55 61 71 64
8 2 17 7 20 11 3 5 48 30 99 56 51 25 96 53 100 61 40 86 46 94 85 107 54 17
112 66 133 112 9 20 34 47 55 60 20 13 37 31 37 39 0 18 -12 14 -116 -48 -46
-27 -89 -50 -94 -50 -12 0 -181 -83 -245 -120 -27 -16 -62 -29 -76 -29 -14 -1
-68 -15 -119 -31 -122 -39 -153 -40 -143 -1 4 16 87 50 165 67 39 9 41 30 7
69 -35 39 -79 52 -124 35 -24 -9 -31 -8 -41 5 -16 22 -7 53 31 100 18 22 38
52 46 67 15 29 144 99 207 113 42 9 42 33 0 78 -55 57 -172 90 -219 61 -8 -4
-10 -3 -5 4 4 7 1 12 -8 12 -12 0 -16 10 -16 36 0 19 -4 33 -9 30 -5 -4 2 17
15 45 14 28 24 52 22 54 -13 10 -67 12 -72 2 -3 -9 -8 -8 -16 3 -9 11 -13 12
-17 3 -10 -27 -97 -1 -99 29 -4 52 -3 51 -19 38 -8 -7 -15 -23 -15 -36 0 -27
-15 -39 -52 -39 -20 0 -28 5 -28 18 0 23 35 57 60 57 11 0 20 5 20 10 0 6 -11
10 -23 10 -28 0 -53 25 -62 62 -6 23 -2 33 23 56 27 25 30 33 25 69 -5 36 -9
42 -35 47 -37 7 -43 7 -49 1z m-16 -42 c-7 -2 -19 -2 -25 0 -7 3 -2 5 12 5 14
0 19 -2 13 -5z m44 -165 c15 -12 17 -54 3 -63 -5 -3 -10 -14 -10 -25 0 -19
-17 -23 -182 -36 -76 -6 -84 2 -47 50 27 34 65 34 102 -1 31 -30 31 -31 13 32
-7 24 1 37 34 52 26 13 66 8 87 -9z m-270 -3 c21 -15 22 -16 5 -60 -15 -41
-19 -45 -50 -45 -18 0 -31 -4 -28 -8 3 -5 -42 -10 -100 -11 -103 -2 -105 -2
-95 18 15 28 60 61 83 61 10 0 31 -11 45 -25 31 -28 40 -26 23 5 -16 30 -5 68
23 73 46 9 73 7 94 -8z m676 -405 l29 -30 -43 -19 c-24 -11 -47 -18 -51 -15
-13 8 -6 74 9 74 7 0 13 5 13 10 0 17 14 11 43 -20z m-320 -39 c16 -19 38 -32
63 -36 65 -11 73 -15 67 -32 -5 -13 -19 -14 -87 -9 -101 9 -113 12 -127 37 -8
16 -7 26 6 45 21 32 48 30 78 -5z m-288 -60 c3 -6 17 -6 36 1 40 14 44 7 15
-25 -22 -23 -28 -26 -52 -16 -22 8 -29 7 -36 -6 -5 -8 -13 -13 -19 -10 -13 9
-11 53 4 58 20 9 46 8 52 -2z m-185 -37 c0 -10 13 -14 43 -15 39 -1 40 -2 12
-9 -66 -17 -94 -5 -79 35 7 18 24 10 24 -11z m570 -779 c0 -8 -4 -15 -10 -15
-5 0 -10 -6 -10 -13 0 -20 -35 -57 -52 -57 -18 0 -58 33 -58 48 0 5 8 13 18
16 9 4 33 13 52 21 46 18 60 18 60 0z"/>
<path d="M805 1876 c-16 -33 -27 -42 -52 -46 -25 -4 -30 -8 -24 -19 5 -8 16
-11 25 -8 10 4 25 -2 36 -13 29 -29 40 -25 27 10 -19 50 -2 65 72 65 33 0 61
1 61 2 0 1 -4 13 -10 27 -8 22 -13 24 -32 17 -28 -11 -37 -11 -63 -1 -17 6
-23 0 -40 -34z"/>
<path d="M1089 1898 c-17 -31 -11 -36 31 -27 22 5 52 6 65 3 18 -4 25 -2 25 7
0 26 -15 34 -64 34 -35 0 -50 -5 -57 -17z"/>
<path d="M1056 1838 c-10 -6 -38 -8 -64 -4 -25 3 -43 3 -39 0 3 -4 0 -19 -8
-35 -20 -38 -3 -45 24 -9 26 36 62 39 92 9 26 -26 29 -23 21 18 -6 27 -10 30
-26 21z"/>
<path d="M4445 1710 c-7 -11 6 -17 45 -22 20 -2 25 -9 25 -32 0 -32 -6 -35
-90 -40 -27 -2 -63 -9 -79 -15 -21 -8 -32 -8 -42 0 -7 6 -17 8 -22 5 -5 -3
-27 -8 -48 -12 -45 -7 -59 -17 -49 -34 5 -9 25 -10 64 -6 58 7 67 7 244 -1
l107 -4 0 30 c0 17 -4 31 -10 31 -5 0 -10 9 -10 19 0 11 5 23 10 26 6 3 10 19
10 36 l0 29 -74 0 c-41 0 -78 -5 -81 -10z"/>
<path d="M4487 1387 c-16 -29 -24 -34 -56 -34 -58 0 -94 -12 -87 -28 6 -17
-50 -31 -82 -21 -10 4 -30 3 -43 -2 l-23 -9 25 -17 c20 -12 54 -17 147 -19 67
-2 125 -6 129 -11 4 -4 8 -15 8 -24 0 -13 11 -18 48 -20 l47 -3 0 80 0 81 -40
0 c-36 0 -40 3 -47 30 l-8 31 -18 -34z"/>
<path d="M2580 1400 c-9 -6 -10 -10 -3 -10 6 0 15 5 18 10 8 12 4 12 -15 0z"/>
<path d="M125 1110 c-9 -15 3 -30 25 -30 10 0 21 -4 25 -9 6 -10 86 -29 150
-35 25 -2 48 2 60 10 32 24 2 39 -83 41 -117 4 -138 7 -155 21 -10 9 -17 10
-22 2z"/>
<path d="M160 950 c0 -5 18 -10 40 -10 22 0 40 5 40 10 0 6 -18 10 -40 10 -22
0 -40 -4 -40 -10z"/>
<path d="M18 913 c12 -2 32 -2 45 0 12 2 2 4 -23 4 -25 0 -35 -2 -22 -4z"/>
<path d="M358 913 c7 -3 16 -2 19 1 4 3 -2 6 -13 5 -11 0 -14 -3 -6 -6z"/>
<path d="M328 893 c7 -3 16 -2 19 1 4 3 -2 6 -13 5 -11 0 -14 -3 -6 -6z"/>
<path d="M401 884 c0 -11 3 -14 6 -6 3 7 2 16 -1 19 -3 4 -6 -2 -5 -13z"/>
<path d="M4530 310 c20 -13 40 -13 40 0 0 6 -12 10 -27 10 -22 0 -25 -2 -13
-10z"/>
<path d="M4525 180 c-3 -4 5 -10 18 -14 34 -9 49 -7 45 5 -5 14 -55 21 -63 9z"/>
<path d="M4280 169 c0 -5 14 -9 32 -9 36 0 31 12 -7 16 -14 1 -25 -2 -25 -7z"/>
<path d="M4048 163 c7 -3 16 -2 19 1 4 3 -2 6 -13 5 -11 0 -14 -3 -6 -6z"/>
<path d="M4445 120 c3 -5 19 -10 36 -10 16 0 29 5 29 10 0 6 -16 10 -36 10
-21 0 -33 -4 -29 -10z"/>
<path d="M4203 113 c9 -2 25 -2 35 0 9 3 1 5 -18 5 -19 0 -27 -2 -17 -5z"/>
<path d="M4360 70 c0 -5 16 -10 36 -10 21 0 33 4 29 10 -3 6 -19 10 -36 10
-16 0 -29 -4 -29 -10z"/>
<path d="M4123 63 c9 -2 23 -2 30 0 6 3 -1 5 -18 5 -16 0 -22 -2 -12 -5z"/>
<path d="M4532 18 c7 -20 68 -23 68 -4 0 12 -10 16 -36 16 -24 0 -34 -4 -32
-12z"/>
<path d="M4275 10 c-4 -6 10 -10 35 -10 25 0 39 4 35 10 -3 6 -19 10 -35 10
-16 0 -32 -4 -35 -10z"/>
</g>
</svg>
